HIERARCHY
ROOT Hips
{
	OFFSET 0.000000 0.000000 0.000000
	CHANNELS 6 Xposition Yposition Zposition Xrotation Yrotation Zrotation
	JOINT LeftUpLeg_virtual
	{
		OFFSET 0.000000 0.000000 0.000000
		CHANNELS 3 Xrotation Yrotation Zrotation
		JOINT LeftUpLeg
		{
			OFFSET 15.427100 -6.655098 0.678600
			CHANNELS 3 Xrotation Yrotation Zrotation
			JOINT LeftLeg
			{
				OFFSET 4.081073 -39.591068 13.024000
				CHANNELS 3 Xrotation Yrotation Zrotation
				JOINT LeftFoot
				{
					OFFSET -4.081074 -37.707932 -15.979700
					CHANNELS 3 Xrotation Yrotation Zrotation
					JOINT LeftToeBase
					{
						OFFSET 5.346399 -15.068900 20.645000
						CHANNELS 3 Xrotation Yrotation Zrotation
						JOINT LeftToe_End
						{
							OFFSET 2.754700 0.931300 11.300900
							CHANNELS 3 Xrotation Yrotation Zrotation
							End Site
							{
								OFFSET 0 0 0
							}
						}
					}
				}
			}
		}
	}
	JOINT RightUpLeg_virtual
	{
		OFFSET 0.000000 0.000000 0.000000
		CHANNELS 3 Xrotation Yrotation Zrotation
		JOINT RightUpLeg
		{
			OFFSET -15.569500 -6.655098 0.678600
			CHANNELS 3 Xrotation Yrotation Zrotation
			JOINT RightLeg
			{
				OFFSET -4.081825 -39.591045 13.023800
				CHANNELS 3 Xrotation Yrotation Zrotation
				JOINT RightFoot
				{
					OFFSET 4.081824 -37.707954 -15.979600
					CHANNELS 3 Xrotation Yrotation Zrotation
					JOINT RightToeBase
					{
						OFFSET -5.346400 -15.068900 20.645000
						CHANNELS 3 Xrotation Yrotation Zrotation
						JOINT RightToe_End
						{
							OFFSET -2.754700 0.931300 11.300900
							CHANNELS 3 Xrotation Yrotation Zrotation
							End Site
							{
								OFFSET 0 0 0
							}
						}
					}
				}
			}
		}
	}
	JOINT Spine_virtual
	{
		OFFSET 0.000000 0.000000 0.000000
		CHANNELS 3 Xrotation Yrotation Zrotation
		JOINT Spine
		{
			OFFSET -0.279200 12.230698 -2.892100
			CHANNELS 3 Xrotation Yrotation Zrotation
			JOINT Spine1
			{
				OFFSET -0.232667 10.192268 -1.242267
				CHANNELS 3 Xrotation Yrotation Zrotation
				JOINT Spine1_split
				{
					OFFSET -0.232667 10.192268 -1.242267
					CHANNELS 3 Xrotation Yrotation Zrotation
					JOINT Spine2
					{
						OFFSET -0.232667 10.192268 -1.242267
						CHANNELS 3 Xrotation Yrotation Zrotation
						JOINT Neck_virtual
						{
							OFFSET 0.000000 0.000000 0.000000
							CHANNELS 3 Xrotation Yrotation Zrotation
							JOINT Neck
							{
								OFFSET -0.418800 17.814194 8.416900
								CHANNELS 3 Xrotation Yrotation Zrotation
								JOINT Head
								{
									OFFSET 0.000000 7.031097 3.806800
									CHANNELS 3 Xrotation Yrotation Zrotation
									JOINT HeadTop_End
									{
										OFFSET 0.000000 24.646606 12.978600
										CHANNELS 3 Xrotation Yrotation Zrotation
										End Site
										{
											OFFSET 0 0 0
										}
									}
								}
							}
						}
						JOINT LeftShoulder_virtual
						{
							OFFSET 0.000000 0.000000 0.000000
							CHANNELS 3 Xrotation Yrotation Zrotation
							JOINT LeftShoulder
							{
								OFFSET 8.476499 7.247704 -3.868750
								CHANNELS 3 Xrotation Yrotation Zrotation
								JOINT LeftShoulder_split
								{
									OFFSET 8.476499 7.247704 -3.868750
									CHANNELS 3 Xrotation Yrotation Zrotation
									JOINT LeftArm
									{
										OFFSET 9.308998 -2.777710 0.208600
										CHANNELS 3 Xrotation Yrotation Zrotation
										JOINT LeftForeArm
										{
											OFFSET 29.972298 0.000000 0.000000
											CHANNELS 3 Xrotation Yrotation Zrotation
											JOINT LeftHand
											{
												OFFSET 26.026505 0.000000 0.000000
												CHANNELS 3 Xrotation Yrotation Zrotation
												End Site
												{
													OFFSET 0 0 0
												}
											}
										}
									}
								}
							}
						}
						JOINT RightShoulder_virtual
						{
							OFFSET 0.000000 0.000000 0.000000
							CHANNELS 3 Xrotation Yrotation Zrotation
							JOINT RightShoulder
							{
								OFFSET -7.570500 7.247704 -3.868750
								CHANNELS 3 Xrotation Yrotation Zrotation
								JOINT RightShoulder_split
								{
									OFFSET -7.570500 7.247704 -3.868750
									CHANNELS 3 Xrotation Yrotation Zrotation
									JOINT RightArm
									{
										OFFSET -9.308998 -2.777710 0.208500
										CHANNELS 3 Xrotation Yrotation Zrotation
										JOINT RightForeArm
										{
											OFFSET -29.972300 0.000000 0.000000
											CHANNELS 3 Xrotation Yrotation Zrotation
											JOINT RightHand
											{
												OFFSET -26.026505 0.000000 0.000000
												CHANNELS 3 Xrotation Yrotation Zrotation
												End Site
												{
													OFFSET 0 0 0
												}
											}
										}
									}
								}
							}
						}
					}
				}
			}
		}
	}
}
MOTION
Frames: 11
Frame Time: 0.03333333
3.018098 71.197632 5.697517 0.000000 0.000000 0.000000 2.002466 -19.505384 -0.707263 -46.023710 -1.619017 22.235577 60.321335 -1.641301 0.687992 -8.674118 3.909272 -16.616320 -1.163306 -1.827161 -0.112779 0.000000 0.000000 0.000000 1.148067 -18.752044 -0.995147 -11.217941 -25.138376 -30.296988 44.870187 16.522508 -6.164447 -16.946411 -35.011959 34.229937 -0.752591 13.015174 -14.962598 0.000000 0.000000 0.000000 2.528415 -14.789646 -1.449437 10.800614 11.806507 -5.710208 0.342254 -1.466790 -0.450790 0.188022 -0.169687 0.005043 0.000000 0.000000 0.000000 6.511852 0.288827 0.691882 -4.255419 11.754911 5.291238 -18.236378 20.229222 -14.395862 0.000000 0.000000 0.000000 3.107700 -1.333617 -0.270979 0.375629 2.291371 0.352235 6.174840 -6.634966 3.365490 -67.807693 7.458185 -46.421627 -177.335193 -84.274740 178.550871 0.000000 0.000000 0.000000 3.062461 -2.168342 0.675839 0.371297 14.264752 -11.037554 -7.748197 -1.738320 -0.512064 -35.929558 14.990956 60.244775 -161.725793 72.400360 156.436754 0.000000 0.000000 0.000000 
3.022264 70.802597 3.954563 0.000000 0.000000 0.000000 1.173636 -23.163287 -0.500384 -45.189515 -0.020806 24.195416 59.865754 -1.502001 0.657204 -7.906002 4.640289 -17.472327 -1.548408 -2.056322 -0.085709 0.000000 0.000000 0.000000 0.078137 -22.210238 -0.811711 -11.954691 -24.939548 -30.817148 45.925113 14.928031 -6.143357 -19.321217 -36.146966 35.751321 2.519214 12.523916 -15.894485 0.000000 0.000000 0.000000 1.430737 -18.424681 -1.146236 10.677607 11.033511 -5.373138 0.742606 -1.628991 -0.499665 0.195223 -0.066393 0.042378 0.000000 0.000000 0.000000 6.473470 0.185613 0.630655 -4.707634 12.520318 4.242525 -17.804688 18.320166 -15.042368 0.000000 0.000000 0.000000 3.384437 -1.476889 -0.215801 0.278830 2.640118 0.080612 6.384053 -6.240563 3.713209 -69.302924 8.222467 -45.978914 167.509706 -85.000325 162.540867 0.000000 0.000000 0.000000 3.211795 -2.332018 0.663566 -0.070869 14.835915 -10.265624 -6.582944 -1.195861 -0.787889 -37.669480 14.872296 62.633081 -161.198857 72.251578 156.051955 0.000000 0.000000 0.000000 
2.906336 70.533073 2.218758 0.000000 0.000000 0.000000 0.591624 -25.977054 -0.043486 -44.924794 1.462807 26.009821 58.900444 -1.544510 0.458667 -6.416727 4.456047 -18.368590 -1.960869 -2.274547 0.135248 0.000000 0.000000 0.000000 -0.597161 -25.140859 -0.290979 -12.488411 -24.261641 -31.294216 46.982935 13.919398 -6.185051 -21.195062 -36.564588 37.519465 4.402459 12.104821 -16.317240 0.000000 0.000000 0.000000 0.592369 -21.287656 -0.618364 10.347117 10.120728 -5.061703 1.084900 -1.736879 -0.561198 0.180784 -0.023041 0.068613 0.000000 0.000000 0.000000 6.381969 0.138483 0.588959 -4.569546 13.283646 3.067428 -17.398044 16.360929 -15.715188 0.000000 0.000000 0.000000 3.611413 -1.558751 -0.179284 0.219239 3.170596 -0.363247 6.373600 -6.041306 3.740821 -69.926363 8.809580 -45.910752 148.913984 -85.212224 143.319171 0.000000 0.000000 0.000000 3.355340 -2.420253 0.649566 -0.551672 15.027596 -9.718697 -5.332041 -0.853117 -0.817822 -39.405567 14.676987 65.382874 -161.090408 71.886047 155.957985 0.000000 0.000000 0.000000 
2.653065 70.426552 0.508904 0.000000 0.000000 0.000000 0.227586 -27.960641 0.575727 -45.275579 2.660926 27.719737 57.599340 -1.664188 0.124752 -4.054227 3.424219 -19.060958 -2.619607 -2.485419 0.515672 0.000000 0.000000 0.000000 -0.930321 -27.538571 0.396031 -12.890240 -23.121406 -31.546653 47.977141 13.322250 -6.296310 -22.701571 -36.417080 39.041874 5.333699 11.729513 -16.158199 0.000000 0.000000 0.000000 0.053899 -23.380878 0.050128 9.814214 9.138577 -4.700178 1.368491 -1.818106 -0.602269 0.172854 -0.010363 0.068668 0.000000 0.000000 0.000000 6.260200 0.125597 0.599828 -3.955775 14.030103 1.946475 -17.030889 14.577060 -16.462393 0.000000 0.000000 0.000000 3.791044 -1.613932 -0.144885 0.202827 3.832803 -0.905919 6.246471 -6.051945 3.569696 -69.715372 9.301114 -46.305759 132.612494 -84.816920 126.637458 0.000000 0.000000 0.000000 3.493400 -2.456170 0.653459 -1.013434 14.902431 -9.446195 -4.031403 -0.814732 -0.874338 -41.101042 14.380830 68.244224 -160.982655 71.704323 155.744815 0.000000 0.000000 0.000000 
2.333899 70.540543 -1.209229 0.000000 0.000000 0.000000 0.078623 -29.375021 1.257390 -46.028758 3.481025 29.099413 56.129525 -1.616861 -0.304093 -1.211664 1.907639 -19.008748 -3.297204 -2.670258 0.728592 0.000000 0.000000 0.000000 -0.947307 -29.302522 1.137917 -13.079840 -21.657096 -31.495601 48.864645 12.989340 -6.456159 -24.275387 -35.982605 39.633300 6.038680 11.275059 -15.460558 0.000000 0.000000 0.000000 -0.172669 -24.866055 0.788909 9.153008 8.174606 -4.265702 1.597334 -1.877494 -0.616071 0.136741 -0.031141 0.072251 0.000000 0.000000 0.000000 6.139883 0.129641 0.681536 -3.048859 14.741479 1.049611 -16.705982 13.193935 -17.370305 0.000000 0.000000 0.000000 3.911427 -1.639347 -0.103460 0.223027 4.590376 -1.438544 6.082041 -6.447244 3.355004 -68.917141 9.773967 -47.091593 122.453803 -84.020397 116.323832 0.000000 0.000000 0.000000 3.606775 -2.473555 0.681230 -1.427244 14.587356 -9.424568 -2.727104 -0.950369 -0.842575 -42.599238 14.151695 70.932717 -160.629370 71.896081 155.192717 0.000000 0.000000 0.000000 
1.985597 70.869308 -2.848404 0.000000 0.000000 0.000000 0.117768 -30.370129 1.947342 -46.911375 3.935108 29.928916 54.544740 -1.441117 -0.680607 1.500220 0.244763 -18.308003 -3.764443 -2.770200 0.638190 0.000000 0.000000 0.000000 -0.710992 -30.375525 1.912747 -13.157383 -20.125823 -31.240117 49.724573 12.769711 -6.585056 -25.954881 -35.330103 39.173071 6.980510 10.715904 -14.435769 0.000000 0.000000 0.000000 -0.183706 -25.902632 1.493095 8.480229 7.300735 -3.771306 1.770556 -1.890279 -0.618079 0.103500 -0.074811 0.074328 0.000000 0.000000 0.000000 6.027218 0.168780 0.794334 -1.993198 15.397114 0.446081 -16.445369 12.297742 -18.445691 0.000000 0.000000 0.000000 3.969604 -1.610482 -0.063901 0.279540 5.364612 -1.888214 6.067059 -7.117122 3.219931 -67.851427 10.261367 -48.120062 117.568948 -83.126080 111.490325 0.000000 0.000000 0.000000 3.685439 -2.455846 0.712819 -1.760692 14.197863 -9.572985 -1.531470 -1.334851 -0.778364 -43.803875 14.194823 73.298052 -159.966036 72.372507 154.293058 0.000000 0.000000 0.000000 
1.648599 71.337906 -4.311844 0.000000 0.000000 0.000000 0.282891 -31.129321 2.638342 -47.669297 4.095218 30.077302 52.907987 -1.577807 -0.755782 3.616541 -1.467766 -17.938785 -4.074356 -2.744150 0.330370 0.000000 0.000000 0.000000 -0.475332 -31.074403 2.619378 -13.425714 -18.756772 -31.014195 50.569501 12.661046 -6.596304 -27.274272 -34.382578 38.335246 7.225217 10.232878 -13.271534 0.000000 0.000000 0.000000 -0.119298 -26.603981 2.119562 7.935627 6.584056 -3.242328 1.883511 -1.829629 -0.616473 0.084956 -0.066872 0.068299 0.000000 0.000000 0.000000 5.903185 0.254184 0.892558 -0.902376 15.973092 0.118628 -16.218071 11.945900 -19.668798 0.000000 0.000000 0.000000 3.962545 -1.513962 -0.034520 0.368422 6.116690 -2.221484 6.156420 -7.975984 3.154442 -66.844357 10.740805 -49.198416 115.799328 -82.293780 109.939278 0.000000 0.000000 0.000000 3.705224 -2.388121 0.710165 -2.017109 13.811703 -9.813392 -0.521423 -1.863846 -0.671507 -44.712027 14.591924 75.293868 -159.090241 72.820089 153.201293 0.000000 0.000000 0.000000 
1.386505 71.875664 -5.577503 0.000000 0.000000 0.000000 0.414707 -31.804509 3.269784 -47.991201 4.159483 29.425350 51.306776 -2.036993 -0.617502 4.429945 -2.994055 -18.055047 -3.980734 -2.595814 -0.202750 0.000000 0.000000 0.000000 -0.308929 -31.551465 3.255050 -13.960756 -17.697416 -30.933466 51.357306 12.727249 -6.541968 -27.880421 -33.173792 37.786929 6.413882 9.877026 -12.179649 0.000000 0.000000 0.000000 -0.051836 -27.223572 2.672300 7.575306 6.069942 -2.749360 1.934801 -1.700094 -0.629772 0.077221 -0.029572 0.058048 0.000000 0.000000 0.000000 5.762873 0.389490 0.932707 0.119004 16.447750 0.029571 -16.044591 12.006513 -20.956426 0.000000 0.000000 0.000000 3.887812 -1.350385 -0.027240 0.468230 6.814087 -2.428453 6.238758 -8.810652 3.058692 -66.057840 11.135085 -50.155804 115.133616 -81.596527 109.607447 0.000000 0.000000 0.000000 3.674966 -2.268827 0.650558 -2.212679 13.468434 -10.063929 0.121222 -2.343868 -0.433662 -45.303866 15.361176 76.967503 -158.310002 73.042200 152.272278 0.000000 0.000000 0.000000 
1.184186 72.376938 -6.602867 0.000000 0.000000 0.000000 0.399310 -32.410672 3.807924 -47.941368 4.216858 28.219729 50.139527 -2.957301 -0.296583 4.132024 -4.431300 -19.030809 -3.513445 -2.349348 -0.697915 0.000000 0.000000 0.000000 -0.238968 -31.921449 3.831750 -14.638948 -16.997156 -30.949202 52.077669 12.929551 -6.441091 -28.275759 -31.883808 37.144648 5.699221 9.560375 -11.330917 0.000000 0.000000 0.000000 -0.113420 -27.798624 3.126333 7.421354 5.745231 -2.372438 1.941177 -1.535668 -0.662026 0.096607 0.006238 0.044318 0.000000 0.000000 0.000000 5.608247 0.560643 0.911162 0.993821 16.808312 0.084570 -15.889441 12.208065 -22.189912 0.000000 0.000000 0.000000 3.797275 -1.148693 -0.048371 0.573912 7.440089 -2.543867 6.222540 -9.316334 2.791266 -65.499479 11.384587 -50.933499 114.488635 -81.039757 109.356636 0.000000 0.000000 0.000000 3.615343 -2.112282 0.530690 -2.357702 13.158647 -10.264565 0.356481 -2.662723 -0.070569 -45.630790 16.382014 78.357726 -157.730474 72.986459 151.625473 0.000000 0.000000 0.000000 
1.052598 72.733032 -7.490208 0.000000 0.000000 0.000000 0.199802 -33.082936 4.215367 -47.645535 4.314265 26.794182 49.717927 -4.278537 0.117155 3.243612 -5.830473 -20.665987 -2.946498 -2.086126 -0.976911 0.000000 0.000000 0.000000 -0.290481 -32.351027 4.293791 -15.352380 -16.595736 -31.003506 52.625624 13.135144 -6.317395 -29.124005 -30.730780 35.865115 6.046641 9.232329 -10.798019 0.000000 0.000000 0.000000 -0.343631 -28.426684 3.460852 7.422431 5.584339 -2.108879 1.946681 -1.373439 -0.703853 0.116595 0.014243 0.031226 0.000000 0.000000 0.000000 5.459546 0.745246 0.856590 1.703931 17.062794 0.187998 -15.677830 12.318216 -23.297154 0.000000 0.000000 0.000000 3.724933 -0.944461 -0.091076 0.673084 8.021045 -2.601500 6.085002 -9.441834 2.321009 -65.076048 11.494487 -51.520756 113.743222 -80.561118 109.006841 0.000000 0.000000 0.000000 3.546088 -1.947021 0.379062 -2.457744 12.855111 -10.390115 0.168588 -2.774001 0.323409 -45.674698 17.470903 79.497378 -157.294639 72.789729 151.204078 0.000000 0.000000 0.000000 
0.944428 72.883316 -8.203186 0.000000 0.000000 0.000000 -0.191148 -33.852876 4.453580 -47.199240 4.554456 25.554634 50.018291 -5.506127 0.412874 2.194056 -7.113359 -21.912915 -2.665265 -1.887704 -1.089506 0.000000 0.000000 0.000000 -0.376419 -32.914955 4.625302 -16.025751 -16.322091 -31.041929 53.218532 13.257524 -6.202068 -30.326064 -29.840946 34.008851 7.110882 8.943866 -10.548239 0.000000 0.000000 0.000000 -0.713651 -29.074640 3.671345 7.481173 5.535798 -1.928627 1.989544 -1.245556 -0.746993 0.130798 -0.022944 0.038489 0.000000 0.000000 0.000000 5.355178 0.912132 0.804409 2.285304 17.233465 0.251876 -15.421257 12.110086 -24.181107 0.000000 0.000000 0.000000 3.694439 -0.768312 -0.139970 0.756437 8.530333 -2.618031 5.894807 -9.221171 1.805085 -64.715236 11.512784 -51.972736 113.516474 -80.085812 109.132428 0.000000 0.000000 0.000000 3.513091 -1.795603 0.239368 -2.518057 12.566815 -10.379482 -0.330091 -2.751190 0.615309 -45.438735 18.446603 80.429862 -156.909280 72.601550 150.917797 0.000000 0.000000 0.000000 
